<?xml version="1.0" encoding="utf-8" ?>	<!-- Generator: Assembly 2.4 - http://assemblyapp.co -->	<svg version="1.1" xmlns="http://www.w3.org/2000/svg" xmlns:xlink="http://www.w3.org/1999/xlink" width="80" height="80" viewBox="0 0 4096.0 4096.0">		<g id="document" transform="scale(13.653333333333334 13.653333333333334) translate(150.0 150.0)">			<path d="M-14.7917,-149.97 C-22.8748,-149.961 -29.4207,-143.402 -29.4123,-135.319 L-29.397,-120.683 L-29.3818,-106.047 L-29.3669,-91.7039 C-29.3664,-91.2376 -29.4195,-90.7824 -29.5028,-90.3409 C-29.5327,-90.1807 -29.5809,-90.0302 -29.6211,-89.8742 C-29.6955,-89.5869 -29.778,-89.3047 -29.8854,-89.0323 C-29.9482,-88.8724 -30.0218,-88.7198 -30.0954,-88.5655 C-30.209,-88.3289 -30.3323,-88.101 -30.4697,-87.8793 C-30.5807,-87.6989 -30.7003,-87.5269 -30.826,-87.3573 C-30.9332,-87.214 -31.0467,-87.0805 -31.1639\=]\-86.9454 C-31.3425,-86.7383 -31.5209,-86.5364 -31.7212,-86.3503 C-31.8233,-86.2562 -31.9341,-86.1727 -32.0412,-86.0845 C-32.2555,-85.9069 -32.4652,-85.7243 -32.6992,-85.5715 C-32.8197,-85.493 -32.9579,-85.4416 -33.0834,-85.37 C-33.3124,-85.2401 -33.5344,-85.0997 -33.7782,-84.9943 C-34.1348,-84.8391 -34.5103,-84.7246 -34.8936,-84.6273 C-34.9097,-84.6232 -34.9235,-84.6129 -34.9393,-84.6088 C-35.1622,-84.4596 -35.3997,-84.3463 -35.6344,-84.224 C-35.6426,-84.2196 -35.6525,-84.2188 -35.6616,-84.2149 C-35.6712,-84.2123 -35.68,-84.2099 -35.6891,-84.2055 C-35.6958,-84.2044 -35.7025,-84.1994 -35.7075,-84.1964 C-35.711,-84.1947 -35.7131,-84.19 -35.7166,-84.1874 C-35.9729,-84.0574 -36.2265,-83.9275 -36.4937,-83.8297 C-36.5027,-83.8265 -36.5121,-83.8239 -36.5212,-83.8206 C-36.5238,-83.8195 -36.5273,-83.8215 -36.5302,-83.8206 C-37.1307,-83.6046 -37.7488,-83.4795 -38.3775,-83.4253 C-38.4606,-83.4179 -38.5416,-83.4114 -38.6245,-83.4069 C-39.2588,-83.3737 -39.8943,-83.4018 -40.5182,-83.5328 C-40.8935,-83.61 -41.2546,-83.7244 -41.6162,-83.861 C-41.7401,-83.9083 -41.8605,-83.9617 -41.9823,-84.016 C-42.2906,-84.1524 -42.5885,-84.3187 -42.8794,-84.5001 C-42.9546,-84.5472 -43.034,-84.5866 -43.1081,-84.6369 C-43.4839,-84.8912 -43.8457,-85.1721 -44.1792,-85.5049 L-54.2518,-95.5565 L-54.2699,-95.5746 L-54.325,-95.6387 L-64.6906,-105.974 L-75.0471,-116.318 C-77.9079,-119.172 -81.6514,-120.592 -85.397,-120.588 C-89.1429,-120.584 -92.8929,-119.157 -95.7477,-116.296 L-116.426,-95.574 C-122.136,-89.8525 -122.127,-80.5834 -116.405,-74.8735 L-106.039,-64.5388 L-95.6831,-54.1948 C-95.6628,-54.1746 -95.6391,-54.1603 -95.6189,-54.1398 C-95.6127,-54.1337 -95.6066,-54.1281 -95.6004,-54.1217 L-85.5739,-44.1066 L-85.5645,-44.0972 L-85.5006,-44.0335 L-85.4912,-44.0241 C-85.4883,-44.0212 -85.4851,-44.0183 -85.4822,-44.0151 C-85.3814,-43.9127 -85.3101,-43.7931 -85.2166,-43.686 C-85.0331,-43.4702 -84.8435,-43.2576 -84.6852,-43.028 C-84.6146,-42.9256 -84.5486,-42.8226 -84.4838,-42.7173 C-84.4803,-42.7115 -84.4782,-42.7047 -84.4747,-42.6989 C-84.3178,-42.4429 -84.1753,-42.1823 -84.053,-41.9128 C-84.0474,-41.9002 -84.0404,-41.8885 -84.0348,-41.8762 C-83.9708,-41.734 -83.9145,-41.5915 -83.8605,-41.4464 C-83.859,-41.4426 -83.8526,-41.4411 -83.8511,-41.4373 C-83.7575,-41.1845 -83.6866,-40.9288 -83.6217,-40.6692 C-83.6211,-40.6663 -83.6226,-40.663 -83.6217,-40.6598 C-83.5411,-40.3365 -83.4919,-40.0113 -83.4561,-39.6815 C-83.4488,-39.6112 -83.4428,-39.5415 -83.4375,-39.471 C-83.4114,-39.1444 -83.4005,-38.8195 -83.4183,-38.4922 C-83.4186,-38.486 -83.418,-38.4802 -83.4183,-38.474 C-83.4301,-38.265 -83.4428,-38.0595 -83.4724,-37.852 C-83.475,-37.8335 -83.4788,-37.8154 -83.4814,-37.7969 C-83.5055,-37.6371 -83.5288,-37.4796 -83.5635,-37.3212 C-83.5646,-37.3153 -83.562,-37.3089 -83.5634,-37.303 C-83.6415,-36.9508 -83.7427,-36.5997 -83.8732,-36.2598 C-83.8744,-36.2571 -83.8717,-36.2533 -83.8732,-36.2507 C-83.8767,-36.2416 -83.8793,-36.2314 -83.8825,-36.2232 C-83.8849,-36.217 -83.889,-36.2111 -83.8916,-36.205 C-83.915,-36.1453 -83.9486,-36.0902 -83.9737,-36.031 C-83.9816,-36.0135 -83.9848,-35.993 -83.9918,-35.976 C-83.9935,-35.9725 -83.9994,-35.9687 -84.0011,-35.9669 C-84.0038,-35.9608 -84.0084,-35.9561 -84.0102,-35.9487 C-84.0157,-35.9362 -84.0227,-35.9224 -84.0286,-35.9121 C-84.1778,-35.5768 -84.3464,-35.247 -84.5489,-34.9328 C-84.6926,-34.3226 -84.9288,-33.753 -85.2148,-33.2124 C-85.218,-33.2065 -85.2206,-33.2001 -85.2238,-33.1939 C-85.2271,-33.188 -85.2297,-33.1816 -85.2329,-33.1757 C-85.3299,-32.9945 -85.414,-32.8076 -85.525,-32.6357 C-85.5274,-32.6322 -85.5321,-32.6301 -85.5344,-32.6266 C-85.5379,-32.6237 -85.5411,-32.621 -85.5435,-32.6175 C-85.6726,-32.4198 -85.8256,-32.2428 -85.9729,-32.0591 C-86.0796,-31.925 -86.1766,-31.7823 -86.2927,-31.656 C-86.2983,-31.6499 -86.305,-31.644 -86.3108,-31.6379 C-86.4687,-31.4679 -86.6401,-31.3158 -86.8135,-31.1617 C-86.8264,-31.1503 -86.8369,-31.1365 -86.8501,-31.1251 C-87.0001,-30.9926 -87.1554,-30.8692 -87.3163,-30.7496 C-87.4625,-30.6408 -87.6093,-30.5359 -87.7641,-30.438 C-87.7735,-30.4321 -87.7822,-30.4257 -87.7913,-30.4198 C-87.7971,-30.416 -87.8039,-30.4139 -87.8097,-30.4104 C-88.0291,-30.2741 -88.2614,-30.157 -88.4955,-30.0438 C-88.654,-29.9672 -88.8059,-29.8801 -88.9709,-29.8147 C-88.9797,-29.8112 -88.9893,-29.8091 -88.9984,-29.8056 C-89.0007,-29.8047 -89.0048,-29.8065 -89.0075,-29.8056 C-89.0906,-29.773 -89.1789,-29.7524 -89.2635,-29.7231 C-89.3653,-29.6875 -89.4707,-29.6623 -89.5743,-29.6311 C-89.6416,-29.6109 -89.7068,-29.5853 -89.7756,-29.5671 C-89.9442,-29.5218 -90.1054,-29.4623 -90.2783,-29.4293 C-90.7244,-29.3439 -91.1798,-29.2911 -91.6505,-29.2906 L-105.994,-29.2757 L-120.629,-29.2604 L-135.265,-29.2452 C-143.348,-29.2368 -149.894,-22.6772 -149.886,-14.5942 L-149.855,14.6774 C-149.847,22.7604 -143.287,29.3069 -135.204,29.2979 L-120.568,29.2827 L-105.933,29.2675 L-91.5895,29.2525 C-91.1156,29.2521 -90.6569,29.3025 -90.2081,29.3884 C-90.1243,29.4044 -90.0438,29.4242 -89.9613,29.4429 C-89.9519,29.4452 -89.9431,29.4499 -89.9337,29.4522 C-89.9121,29.4575 -89.8913,29.465 -89.8696,29.4703 C-89.8512,29.4753 -89.8333,29.4837 -89.8149,29.4884 C-89.7841,29.4971 -89.7539,29.5076 -89.7232,29.5158 C-89.5487,29.5619 -89.38,29.6217 -89.2108,29.6801 C-89.2043,29.6821 -89.1988,29.6868 -89.1923,29.6891 C-89.1045,29.7177 -89.0128,29.7375 -88.927,29.7711 C-88.7566,29.838 -88.597,29.9203 -88.433,29.9992 C-88.1835,30.1195 -87.9424,30.2452 -87.7099,30.3919 C-87.5751,30.4766 -87.4451,30.5637 -87.3162,30.6567 C-87.3053,30.6645 -87.2907,30.6672 -87.2796,30.6751 C-87.0818,30.82 -86.894,30.9773 -86.7121,31.1411 C-86.7089,31.144 -86.7059,31.1472 -86.7027,31.1501 C-86.5451,31.2922 -86.3901,31.4334 -86.245,31.5887 C-86.2392,31.5951 -86.2324,31.6004 -86.2269,31.6068 C-86.1914,31.6452 -86.1603,31.687 -86.1261,31.7259 C-86.1085,31.7455 -86.0973,31.77 -86.0803,31.7899 C-86.0739,31.7987 -86.0689,31.8089 -86.0619,31.8171 C-85.9868,31.9128 -85.9077,32.0046 -85.833,32.1005 C-85.825,32.1108 -85.8133,32.1178 -85.8054,32.128 C-85.6867,32.2822 -85.5636,32.4307 -85.4572,32.5942 C-85.3085,32.8236 -85.1862,33.0699 -85.0633,33.3163 C-84.9862,33.4702 -84.8912,33.6135 -84.8249,33.7735 C-84.8222,33.7797 -84.8184,33.7855 -84.8158,33.7917 C-84.8146,33.7943 -84.8169,33.7984 -84.8158,33.8007 C-84.659,34.1826 -84.5301,34.5788 -84.4395,34.9897 C-84.0596,35.5899 -83.7931,36.2357 -83.6051,36.9005 C-83.6042,36.9034 -83.6059,36.907 -83.6051,36.9099 C-83.593,36.9526 -83.5795,36.9948 -83.5683,37.0378 C-83.5399,37.1258 -83.5061,37.2124 -83.4858,37.3029 C-83.4346,37.5332 -83.413,37.7647 -83.3844,37.998 C-83.3578,38.2116 -83.3365,38.4235 -83.3287,38.6384 C-83.3214,38.8526 -83.3259,39.0646 -83.3374,39.2786 C-83.3377,39.2879 -83.3368,39.297 -83.3374,39.3061 C-83.3417,39.3825 -83.3486,39.4586 -83.3553,39.5347 C-83.3573,39.5564 -83.3623,39.5774 -83.3646,39.5988 C-83.3675,39.614 -83.3719,39.6293 -83.3736,39.6445 C-83.3748,39.6536 -83.3727,39.6629 -83.3736,39.672 C-83.3808,39.739 -83.3828,39.8064 -83.3915,39.8731 C-83.4249,40.1205 -83.4695,40.3617 -83.528,40.6051 C-83.5301,40.6141 -83.5257,40.6238 -83.528,40.6326 C-83.5703,40.8065 -83.6278,40.9743 -83.6829,41.145 C-83.7573,41.3743 -83.8317,41.5997 -83.9293,41.8223 C-83.9894,41.9599 -84.0701,42.0906 -84.1393,42.225 C-84.2012,42.3407 -84.2553,42.459 -84.3219,42.5726 C-84.3345,42.594 -84.3458,42.6157 -84.3584,42.6368 C-84.3599,42.6391 -84.3569,42.6435 -84.3584,42.6459 C-84.3698,42.6649 -84.3832,42.6822 -84.3949,42.7009 C-84.3984,42.7065 -84.4005,42.7132 -84.404,42.7191 C-84.451,42.7955 -84.4908,42.8731 -84.541,42.9478 C-84.7868,43.3163 -85.061,43.6723 -85.3815,44.0007 C-85.3876,44.0072 -85.3935,44.0127 -85.3996,44.0192 L-85.418,44.0374 L-85.4637,44.0834 C-85.4698,44.0895 -85.4759,44.0954 -85.4821,44.1015 L-95.4878,54.1375 L-95.5062,54.1556 C-95.5264,54.1758 -95.5504,54.1905 -95.5703,54.2107 L-105.905,64.5763 L-116.249,74.9328 C-121.959,80.6543 -121.949,89.9249 -116.227,95.6334 L-95.5057,116.312 C-89.7838,122.022 -80.5147,122.014 -74.8051,116.291 L-64.4701,105.925 L-54.1261,95.5688 C-54.1059,95.5486 -54.0916,95.5234 -54.0711,95.5046 L-54.053,95.4861 L-44.0379,85.4596 C-44.0318,85.4531 -44.0247,85.4461 -44.0198,85.4411 C-44.0119,85.4332 -44.0092,85.4203 -44.0014,85.4136 C-43.9935,85.4057 -43.982,85.4033 -43.9739,85.3954 L-43.9557,85.3769 C-43.9493,85.3708 -43.9437,85.3652 -43.9373,85.3588 C-43.8376,85.2609 -43.722,85.1926 -43.6173,85.1023 C-43.3807,84.8951 -43.1415,84.6873 -42.8862,84.5161 C-42.8116,84.4657 -42.734,84.4258 -42.6577,84.3786 C-42.6518,84.3751 -42.6451,84.373 -42.6395,84.3695 C-42.6337,84.366 -42.6267,84.3639 -42.6211,84.3604 C-42.6085,84.3516 -42.5977,84.3408 -42.5846,84.3329 C-42.5822,84.3314 -42.5778,84.3343 -42.5755,84.3328 C-42.5544,84.3199 -42.5328,84.3091 -42.5114,84.2962 C-42.3979,84.2293 -42.2794,84.1751 -42.1642,84.1129 C-42.1422,84.1014 -42.1217,84.0877 -42.1001,84.0762 C-42.0454,84.0487 -41.9898,84.0228 -41.9354,83.9938 C-41.8766,83.9659 -41.8213,83.9281 -41.7619,83.902 C-41.5395,83.804 -41.3142,83.7291 -41.0851,83.6542 C-40.9145,83.5987 -40.7468,83.5409 -40.573,83.4983 C-40.5645,83.4962 -40.5543,83.5003 -40.5455,83.4982 C-40.3023,83.4392 -40.0612,83.3941 -39.8138,83.3602 C-39.6251,83.3348 -39.4372,83.3156 -39.2469,83.3049 C-39.2378,83.3043 -39.2285,83.3051 -39.2194,83.3048 C-39.0054,83.2929 -38.7935,83.288 -38.5792,83.2948 C-38.3644,83.3022 -38.1521,83.3228 -37.9387,83.3492 C-37.7054,83.3773 -37.4738,83.3985 -37.2434,83.4491 C-37.1067,83.4792 -36.9761,83.5291 -36.8408,83.5676 C-36.2889,83.7224 -35.7588,83.9467 -35.2486,84.2336 C-35.1438,84.2926 -35.0307,84.3335 -34.9282,84.3981 C-34.5177,84.4878 -34.1204,84.6165 -33.7385,84.7718 C-33.7359,84.773 -33.7321,84.7706 -33.7294,84.7718 C-33.5631,84.8398 -33.4134,84.9386 -33.2535,85.0183 C-33.0072,85.1407 -32.7603,85.2625 -32.5307,85.4107 C-32.367,85.5168 -32.2181,85.6396 -32.0637,85.758 C-31.885,85.8948 -31.7069,86.026 -31.5417,86.1784 C-31.3761,86.331 -31.2258,86.495 -31.0749,86.6626 C-30.9108,86.8442 -30.7531,87.0317 -30.6077,87.2291 C-30.5057,87.368 -30.4157,87.5128 -30.3236,87.6588 C-30.1764,87.8911 -30.0503,88.1319 -29.9295,88.3811 C-29.8502,88.545 -29.7675,88.7044 -29.7003,88.8747 C-29.5985,89.1328 -29.5157,89.3988 -29.4434,89.6703 C-29.4002,89.8324 -29.347,89.9887 -29.315,90.1549 C-29.2281,90.6036 -29.1767,91.0622 -29.1762,91.5361 L-29.1613,105.879 L-29.1461,120.515 L-29.1309,135.151 C-29.1224,143.233 -22.5629,149.78 -14.4798,149.771 L14.7917,149.741 C22.8748,149.732 29.4213,143.172 29.4123,135.09 L29.397,120.454 L29.3818,105.818 L29.3669,91.4752 C29.3664,91.0013 29.4169,90.5426 29.5027,90.0937 C29.5156,90.0255 29.5333,89.9599 29.5482,89.8926 C29.5488,89.8896 29.5476,89.8861 29.5482,89.8832 C29.5511,89.8712 29.5546,89.8589 29.5572,89.8469 C29.5596,89.8375 29.5642,89.8287 29.5666,89.8194 C29.5718,89.7977 29.5794,89.7769 29.5846,89.7553 C29.5896,89.7368 29.5981,89.7192 29.6027,89.7005 C29.6115,89.6698 29.622,89.6393 29.6302,89.6089 C29.6765,89.4341 29.7372,89.2657 29.7944,89.0964 C29.7965,89.09 29.8011,89.0844 29.8035,89.078 C29.8338,88.991 29.8522,88.8988 29.8855,88.8127 C29.9523,88.6423 30.0347,88.4826 30.1136,88.3186 C30.233,88.0706 30.361,87.8269 30.5062,87.5955 C30.591,87.4608 30.6781,87.3307 30.771,87.2018 C30.7789,87.191 30.7815,87.1763 30.7894,87.1652 C30.9344,86.9675 31.0917,86.7809 31.2554,86.5977 C31.2583,86.5945 31.2613,86.5922 31.2645,86.5884 C31.4066,86.4307 31.5478,86.2757 31.7031,86.1307 C31.7095,86.1248 31.7151,86.1184 31.7212,86.1125 C31.7595,86.0771 31.7984,86.0428 31.8402,86.0117 C31.8598,85.9941 31.882,85.9801 31.9043,85.966 C31.9072,85.963 31.9095,85.9587 31.9133,85.9566 C31.9163,85.954 31.9183,85.949 31.9224,85.9475 C31.9242,85.9461 31.9297,85.949 31.9315,85.9475 C32.0236,85.8681 32.119,85.7936 32.2149,85.7186 C32.2251,85.7107 32.2321,85.6993 32.2424,85.6911 C32.3965,85.5723 32.5451,85.4493 32.7086,85.3428 C32.9373,85.1939 33.1852,85.0719 33.4306,84.949 C33.5898,84.8692 33.7407,84.7789 33.906,84.7105 C33.9098,84.709 33.9113,84.7035 33.9151,84.7014 C34.2966,84.5453 34.694,84.4158 35.104,84.3252 C35.4258,84.1217 35.7578,83.9522 36.1005,83.8025 C36.1757,83.7703 36.2532,83.7494 36.329,83.7201 C36.5958,83.6141 36.868,83.5275 37.143,83.454 C37.6493,83.3188 38.1682,83.2562 38.6886,83.2329 C38.7934,83.2281 38.8947,83.187 38.9997,83.1869 C39.1347,83.1867 39.267,83.2147 39.402,83.223 C39.5094,83.2291 39.6151,83.2386 39.7222,83.2502 C39.7407,83.252 39.7588,83.2572 39.7773,83.2592 C40.0326,83.2874 40.2849,83.3217 40.5367,83.3773 C40.5393,83.3779 40.5429,83.3767 40.5458,83.3773 C40.6687,83.4044 40.79,83.4447 40.9118,83.4776 C40.9144,83.4782 40.9179,83.4767 40.9209,83.4776 C40.9247,83.4788 40.9264,83.4849 40.9299,83.4867 C40.9329,83.4875 40.9364,83.4858 40.939,83.4866 C40.9481,83.4904 40.9575,83.4928 40.9665,83.4957 C40.9695,83.4966 40.973,83.4948 40.9759,83.4957 C41.2195,83.5663 41.4617,83.6363 41.6986,83.7329 C41.8579,83.7966 42.0099,83.8766 42.1654,83.952 C42.1961,83.9671 42.2266,83.982 42.2568,83.9975 C42.2629,84.0007 42.2691,84.0034 42.2752,84.0066 C42.2787,84.0086 42.2808,84.0142 42.2843,84.0156 C42.2899,84.0197 42.2966,84.0215 42.3028,84.025 C42.4504,84.1015 42.5985,84.1661 42.7421,84.2531 C43.0991,84.47 43.4515,84.7117 43.7764,84.9929 C43.8933,85.0944 44.0181,85.1806 44.1335,85.2853 L44.1517,85.3037 C44.1599,85.3113 44.1713,85.3139 44.1792,85.3218 L44.1977,85.3493 C44.2027,85.3563 44.2097,85.3613 44.2159,85.3677 L44.9941,86.1444 L54.2518,95.3735 L54.27,95.3919 C54.2902,95.4121 54.3049,95.4343 54.3251,95.4559 L64.6907,105.791 L75.0472,116.135 C80.7687,121.844 90.0378,121.835 95.7477,116.113 L116.426,95.3913 C122.136,89.6695 122.126,80.4004 116.405,74.6907 L106.039,64.3558 L95.6189,53.9568 L95.6005,53.9386 L85.5739,43.9235 C85.5596,43.9095 85.542,43.901 85.5279,43.887 C85.5077,43.8668 85.4924,43.8434 85.4731,43.823 C85.3752,43.7232 85.3066,43.6077 85.2167,43.503 C85.0095,43.2664 84.802,43.0272 84.6305,42.7718 C84.58,42.6972 84.5402,42.6197 84.4929,42.5433 C84.4894,42.5375 84.4874,42.5311 84.4838,42.5252 C84.4721,42.5065 84.4584,42.4892 84.4472,42.4702 C84.4457,42.4679 84.4481,42.4638 84.4472,42.4611 C84.4343,42.4401 84.4234,42.4181 84.4105,42.3971 C84.3437,42.2836 84.2897,42.1654 84.2272,42.0498 C84.2158,42.0279 84.202,42.0071 84.1906,41.9857 C84.1738,41.953 84.1609,41.9181 84.1445,41.8851 C84.134,41.8631 84.1184,41.8433 84.1081,41.821 C84.0803,41.7622 84.0428,41.7069 84.0163,41.6475 C83.9184,41.4252 83.8435,41.1999 83.7686,40.9707 C83.7677,40.9681 83.7695,40.9643 83.7686,40.9617 C83.7604,40.9368 83.7486,40.9131 83.7413,40.8885 C83.6943,40.746 83.6479,40.6041 83.6126,40.4587 C83.612,40.4557 83.6129,40.4528 83.6126,40.4496 C83.6111,40.444 83.6141,40.437 83.6126,40.4311 C83.5535,40.188 83.5085,39.9468 83.4746,39.6995 C83.4716,39.6784 83.4681,39.6571 83.4654,39.6357 C83.4542,39.5444 83.4459,39.4528 83.4376,39.3612 C83.4287,39.2853 83.4231,39.209 83.4192,39.1326 C83.4189,39.1264 83.4198,39.1203 83.4192,39.1141 C83.4189,39.1112 83.4192,39.1083 83.4192,39.105 C83.4073,38.8911 83.4024,38.6792 83.4092,38.4649 C83.4163,38.2509 83.4377,38.0372 83.4635,37.8244 C83.4917,37.591 83.5128,37.3595 83.5635,37.1291 C83.5833,37.0389 83.6221,36.9534 83.6455,36.8638 C83.6598,36.8187 83.6691,36.7721 83.6819,36.7265 C83.8368,36.1745 84.061,35.6445 84.348,35.1343 C84.407,35.0294 84.4478,34.9164 84.5124,34.8139 C84.6021,34.4028 84.7299,34.0063 84.8861,33.6242 C84.8873,33.6218 84.885,33.6177 84.8861,33.6151 C84.8888,33.6089 84.8929,33.6031 84.8952,33.5969 C84.8964,33.5943 84.8937,33.5902 84.8952,33.5879 C84.8978,33.5814 84.9016,33.5756 84.9045,33.5694 C85.0736,33.1635 85.2889,32.781 85.5251,32.4163 C85.6311,32.2526 85.7539,32.1038 85.8723,31.9494 C85.8802,31.9391 85.8919,31.9321 85.8998,31.9218 C86.0281,31.7537 86.1494,31.5829 86.2927,31.4273 C86.2986,31.4212 86.3047,31.4156 86.3108,31.4092 C86.4556,31.2536 86.6103,31.112 86.7676,30.9696 C86.7708,30.9667 86.7737,30.9635 86.777,30.9605 C86.9586,30.7964 87.1457,30.6387 87.3435,30.4934 C87.349,30.4893 87.3555,30.4869 87.3619,30.4843 C87.3672,30.4802 87.3748,30.479 87.38,30.4749 C87.5087,30.3817 87.6386,30.2943 87.7732,30.2093 C88.0054,30.0621 88.2471,29.9362 88.4955,29.8151 C88.6593,29.7359 88.8187,29.6532 88.989,29.586 C89.2471,29.4841 89.5131,29.4013 89.7847,29.329 C89.8154,29.3208 89.8455,29.3102 89.8763,29.3014 C89.895,29.2967 89.9122,29.2882 89.931,29.2832 C89.9526,29.2779 89.9734,29.2703 89.9951,29.265 C90.087,29.2432 90.1759,29.2186 90.2693,29.2006 C90.7179,29.1138 91.1765,29.0624 91.6505,29.0619 L105.994,29.047 L120.629,29.0317 L135.265,29.0165 C143.347,29.0081 149.894,22.4485 149.886,14.3655 L149.855,-14.9061 C149.847,-22.9891 143.286,-29.535 135.204,-29.5266 L120.568,-29.5114 L105.933,-29.4962 L91.5895,-29.4812 C91.1206,-29.4808 90.6616,-29.533 90.2172,-29.6171 C90.0441,-29.6497 89.8828,-29.709 89.7141,-29.7539 C89.4524,-29.8233 89.195,-29.8938 88.9455,-29.9907 C88.9429,-29.9919 88.9391,-29.9896 88.9364,-29.9907 C88.9273,-29.9942 88.9183,-29.9963 88.9089,-29.9998 C88.9025,-30.0024 88.8972,-30.0065 88.8904,-30.0088 C88.732,-30.0719 88.5859,-30.1546 88.433,-30.2279 C88.4304,-30.2291 88.4263,-30.227 88.4239,-30.2279 C88.1917,-30.3406 87.965,-30.4575 87.7465,-30.5931 C87.7406,-30.5969 87.7342,-30.5986 87.728,-30.6024 C87.7187,-30.6083 87.7099,-30.6147 87.7008,-30.6206 C87.5458,-30.7182 87.3988,-30.8228 87.2523,-30.9312 C87.0912,-31.0508 86.9354,-31.1733 86.7853,-31.3057 C86.7754,-31.3142 86.7663,-31.3241 86.7578,-31.3332 C86.7546,-31.3358 86.7519,-31.3393 86.7487,-31.3423 C86.575,-31.4961 86.4033,-31.6478 86.245,-31.8174 C86.2392,-31.8238 86.233,-31.8291 86.2269,-31.8355 C86.168,-31.8993 86.1149,-31.968 86.0619,-32.0368 C86.0419,-32.0599 86.0244,-32.085 86.0071,-32.1099 C85.9971,-32.1216 85.9895,-32.1347 85.9795,-32.1464 C85.9543,-32.1766 85.9306,-32.2076 85.9062,-32.238 C85.7585,-32.4214 85.6052,-32.598 85.4756,-32.7955 C85.471,-32.8025 85.4622,-32.8066 85.4572,-32.8136 C85.3461,-32.9844 85.2613,-33.1728 85.1639,-33.353 C85.161,-33.3589 85.158,-33.3653 85.1548,-33.3712 C85.1516,-33.3773 85.1489,-33.3835 85.1457,-33.3896 C85.1445,-33.392 85.1469,-33.3964 85.1457,-33.3987 C84.868,-33.9227 84.6391,-34.4733 84.4944,-35.063 C84.493,-35.0697 84.4871,-35.0744 84.4854,-35.0811 C84.483,-35.0908 84.4783,-35.099 84.4762,-35.1086 C84.3645,-35.2812 84.2847,-35.4673 84.192,-35.6481 C84.1126,-35.7973 84.0223,-35.9427 83.9539,-36.096 C83.951,-36.1021 83.9474,-36.1074 83.9445,-36.1144 C83.9008,-36.213 83.8462,-36.3066 83.8072,-36.407 C83.8046,-36.4132 83.8005,-36.4181 83.7978,-36.4251 C83.797,-36.4278 83.7972,-36.4307 83.7978,-36.4342 C83.6666,-36.7739 83.5638,-37.1242 83.4859,-37.4768 C83.4853,-37.4798 83.485,-37.483 83.4859,-37.4859 C83.4853,-37.4888 83.4859,-37.4924 83.4858,-37.495 C83.4508,-37.6533 83.4273,-37.8108 83.4028,-37.9706 C83.4005,-37.989 83.3963,-38.0069 83.3937,-38.0256 C83.3636,-38.2331 83.349,-38.4386 83.3383,-38.6475 C83.338,-38.6537 83.3386,-38.6593 83.3383,-38.6657 C83.3198,-38.9929 83.3303,-39.3179 83.3554,-39.6446 C83.3606,-39.7148 83.3664,-39.7854 83.3736,-39.855 C83.4087,-40.185 83.4575,-40.5102 83.5371,-40.8338 C83.538,-40.837 83.5365,-40.8405 83.5371,-40.8431 C83.6015,-41.1028 83.6727,-41.3593 83.7649,-41.6117 C83.7664,-41.6153 83.7728,-41.6173 83.7743,-41.6208 C83.814,-41.7283 83.8478,-41.8355 83.8928,-41.9412 C83.8966,-41.95 83.8977,-41.9599 83.9018,-41.9687 C83.9071,-41.981 83.915,-41.9927 83.9202,-42.005 C83.9217,-42.0088 83.9278,-42.0103 83.9293,-42.0144 C83.9319,-42.0205 83.9351,-42.0264 83.9384,-42.0326 C83.9413,-42.039 83.9448,-42.0446 83.9477,-42.051 C83.9532,-42.0633 83.9608,-42.0747 83.9658,-42.0876 C84.0876,-42.3573 84.2287,-42.6183 84.3859,-42.8746 C84.3894,-42.8804 84.3926,-42.8875 84.395,-42.893 C84.3985,-42.8986 84.3996,-42.9059 84.404,-42.9112 C84.4061,-42.9147 84.411,-42.917 84.4131,-42.9206 C84.4727,-43.0161 84.5314,-43.1107 84.5957,-43.2041 C84.7533,-43.4335 84.9392,-43.6494 85.1257,-43.8633 C85.2173,-43.9714 85.29,-44.09 85.3906,-44.1928 C85.3935,-44.1961 85.3967,-44.199 85.3997,-44.2019 C85.4137,-44.2163 85.4222,-44.2339 85.4362,-44.2479 C85.4502,-44.262 85.4678,-44.2705 85.4821,-44.2846 L95.4878,-54.3205 L95.5063,-54.3387 L105.905,-64.7593 L116.249,-75.1156 C121.959,-80.8374 121.95,-90.1065 116.228,-95.8161 L95.5057,-116.495 C92.6447,-119.35 88.8929,-120.769 85.1461,-120.765 C81.4005,-120.761 77.6599,-119.334 74.8051,-116.474 L64.4702,-106.108 L54.1261,-95.7515 C54.106,-95.7313 54.0902,-95.7079 54.0712,-95.6873 C54.0653,-95.6812 54.0583,-95.675 54.053,-95.6692 L44.0379,-85.6423 L44.0289,-85.6332 C44.0178,-85.6221 44.0125,-85.6077 44.0014,-85.5966 L43.9648,-85.5691 L43.9558,-85.56 C41.8884,-83.5214 38.9147,-82.975 36.3469,-83.8964 C36.344,-83.8973 36.3405,-83.8953 36.3378,-83.8964 C36.3314,-83.8988 36.3264,-83.9035 36.3194,-83.9055 C36.0646,-83.998 35.8233,-84.1216 35.5781,-84.2431 C35.5632,-84.2507 35.5471,-84.2536 35.5325,-84.2615 C35.4484,-84.3039 35.369,-84.3559 35.2853,-84.3982 C35.1119,-84.4944 34.93,-84.5703 34.7634,-84.6813 C34.3625,-84.7793 33.9734,-84.9036 33.6015,-85.0645 C33.3584,-85.1696 33.1343,-85.3087 32.9059,-85.4387 C32.7858,-85.5065 32.6552,-85.5561 32.5398,-85.6303 C32.5339,-85.6341 32.5272,-85.6359 32.5213,-85.6394 C32.287,-85.7917 32.0772,-85.9738 31.8622,-86.151 C31.755,-86.239 31.6439,-86.3223 31.5417,-86.4161 C31.341,-86.6018 31.1622,-86.8033 30.9831,-87.0101 C30.8656,-87.1449 30.7519,-87.2782 30.6443,-87.4213 C30.5183,-87.5906 30.3984,-87.7623 30.287,-87.9425 C30.1489,-88.1639 30.0254,-88.3916 29.9113,-88.6279 C29.8374,-88.7821 29.7634,-88.9346 29.7003,-89.0943 C29.5923,-89.3664 29.5092,-89.6485 29.4343,-89.9356 C29.3937,-90.0916 29.3453,-90.242 29.3149,-90.4021 C29.2308,-90.8434 29.1767,-91.2985 29.1762,-91.7648 L29.1613,-106.108 L29.1461,-120.744 L29.1309,-135.379 C29.1224,-143.463 22.5629,-150.008 14.4798,-150 L-14.7917,-149.97 Z M-0.0341123,-32.8985 C1.09753,-32.8997 2.21167,-32.8391 3.31415,-32.7281 C4.3698,-32.6221 5.40998,-32.4595 6.43382,-32.2557 C7.03197,-32.1366 7.61347,-31.9698 8.19965,-31.8185 C8.60723,-31.7132 9.02443,-31.6291 9.42558,-31.5089 C9.96991,-31.3455 10.4953,-31.1429 11.027,-30.9523 C11.4955,-30.7848 11.9687,-30.6299 12.427,-30.4415 C12.9041,-30.2462 13.3621,-30.0198 13.8275,-29.8028 C14.2878,-29.5879 14.7517,-29.3811 15.2001,-29.1456 C15.2098,-29.1407 15.218,-29.1325 15.2276,-29.1272 C15.6602,-28.8996 16.0788,-28.6522 16.4999,-28.4061 C16.9595,-28.1376 17.419,-27.874 17.8637,-27.5841 C18.2978,-27.3012 18.7167,-27.0008 19.1362,-26.6982 C19.145,-26.6918 19.1546,-26.6863 19.1634,-26.6801 C19.2996,-26.5816 19.4317,-26.4787 19.5665,-26.3785 C19.7994,-26.2066 20.0343,-26.037 20.2619,-25.8578 C20.7169,-25.4994 21.1549,-25.1246 21.5897,-24.7431 C21.9014,-24.4697 22.2038,-24.187 22.5053,-23.9028 C22.5428,-23.8671 22.5867,-23.8379 22.6243,-23.8022 C22.9706,-23.4712 23.309,-23.1335 23.6407,-22.7878 C23.6601,-22.7677 23.6762,-22.7443 23.6955,-22.7238 C24.0548,-22.3474 24.4076,-21.9652 24.7488,-21.5725 C25.087,-21.1826 25.4181,-20.7896 25.7379,-20.3842 C26.0298,-20.0145 26.3045,-19.6334 26.5807,-19.2508 C26.8952,-18.815 27.2036,-18.3771 27.4968,-17.9255 C27.7938,-17.468 28.0747,-16.9999 28.3489,-16.5269 C28.358,-16.5114 28.3676,-16.4964 28.3764,-16.4809 C28.3799,-16.4751 28.3823,-16.4686 28.3855,-16.4628 C28.3885,-16.4567 28.3914,-16.4505 28.3946,-16.4447 C28.5837,-16.1167 28.7758,-15.792 28.9538,-15.457 C28.9556,-15.4535 28.9609,-15.4518 28.9629,-15.448 C28.9661,-15.4421 28.9688,-15.436 28.972,-15.4298 C28.9752,-15.4237 28.9779,-15.4175 28.9811,-15.4114 C29.2372,-14.9275 29.4642,-14.4281 29.6963,-13.9304 C29.6992,-13.9243 29.7027,-13.9181 29.7054,-13.912 C29.7209,-13.8786 29.7359,-13.845 29.7514,-13.8116 C29.7694,-13.7748 29.7893,-13.7391 29.8063,-13.7016 C29.977,-13.3277 30.1537,-12.9588 30.3106,-12.5772 C30.3159,-12.5647 30.3238,-12.5533 30.3288,-12.5407 C30.355,-12.4775 30.3767,-12.4119 30.4022,-12.3487 C30.4298,-12.2662 30.453,-12.1822 30.485,-12.1018 C30.534,-11.9601 30.5881,-11.8209 30.6409,-11.681 C30.7237,-11.4481 30.8155,-11.2196 30.8977,-10.9861 C31.0542,-10.5413 31.228,-10.1048 31.3657,-9.65118 C31.3684,-9.64182 31.3719,-9.63304 31.3748,-9.62367 C31.3757,-9.62104 31.3739,-9.61723 31.3748,-9.6146 C31.3775,-9.60524 31.381,-9.59646 31.3839,-9.58709 C31.5684,-8.97581 31.7125,-8.34779 31.8615,-7.72153 C31.8674,-7.69694 31.8742,-7.67266 31.88,-7.64837 C31.8827,-7.63608 31.8862,-7.62408 31.8892,-7.61179 C31.8912,-7.60242 31.8962,-7.59364 31.8983,-7.58428 C31.9738,-7.26061 32.062,-6.94223 32.1279,-6.61504 C32.13,-6.60539 32.1352,-6.59691 32.137,-6.58754 C32.3288,-5.63144 32.4727,-4.66328 32.5791,-3.67899 C32.58,-3.67313 32.5785,-3.66669 32.5791,-3.66084 C32.5868,-3.59938 32.6006,-3.53997 32.6068,-3.47792 C32.7186,-2.38269 32.783,-1.27308 32.7842,-0.148461 C32.7853,0.976146 32.7233,2.0859 32.6137,3.18136 C32.6071,3.24928 32.5937,3.31486 32.5864,3.38249 C32.4821,4.36699 32.3402,5.33544 32.1504,6.29195 C32.1487,6.30131 32.1431,6.31011 32.1413,6.31947 C32.0717,6.66875 31.9761,7.00811 31.8957,7.35331 C31.8895,7.37761 31.8831,7.40192 31.8773,7.42651 C31.7295,8.05277 31.5868,8.68139 31.4036,9.29307 C31.401,9.30214 31.3972,9.31151 31.3945,9.32059 C31.2545,9.78645 31.0799,10.2359 30.9203,10.693 C30.7379,11.2148 30.5625,11.7396 30.3546,12.2488 C30.3497,12.2611 30.3415,12.2729 30.3365,12.2854 C30.1803,12.6673 30.0045,13.0366 29.8345,13.4109 C29.572,13.9887 29.3076,14.5633 29.0129,15.1224 C29.01,15.1285 29.007,15.1347 29.0038,15.1408 C28.8157,15.4978 28.6114,15.844 28.4104,16.1932 C28.4016,16.2087 28.392,16.2236 28.383,16.2391 C28.2719,16.4313 28.1506,16.617 28.0361,16.8065 C27.8695,17.085 27.7097,17.3674 27.5338,17.6395 C27.2415,18.0918 26.934,18.5303 26.6204,18.9667 C26.3451,19.3499 26.0712,19.7316 25.78,20.1019 C25.4611,20.5079 25.1307,20.9017 24.7934,21.2922 C24.4346,21.7071 24.0665,22.1135 23.6879,22.5099 C23.3569,22.8562 23.0191,23.1947 22.6735,23.5264 C22.6361,23.5621 22.5922,23.5914 22.5548,23.6272 C22.2539,23.9117 21.9521,24.1957 21.6409,24.4694 C21.2069,24.8519 20.7697,25.2276 20.3155,25.5869 C19.9569,25.8709 19.5895,26.1424 19.2186,26.4115 C19.2099,26.4179 19.2002,26.4232 19.1914,26.4297 C18.7726,26.733 18.3543,27.0344 17.9208,27.3182 C17.4765,27.609 17.0178,27.8735 16.5588,28.143 C16.1381,28.3899 15.7204,28.6383 15.288,28.8668 C15.2783,28.8721 15.2704,28.88 15.2605,28.8852 C14.9463,29.051 14.6209,29.1971 14.3006,29.3528 C14.1631,29.4168 14.0264,29.481 13.8892,29.5453 C13.4243,29.7632 12.9667,29.9906 12.4901,30.1869 C12.0322,30.3762 11.5593,30.5321 11.0912,30.7006 C10.5598,30.892 10.0349,31.096 9.49089,31.2605 C9.08912,31.3818 8.67384,31.4662 8.26561,31.5726 C7.67974,31.7252 7.0986,31.8932 6.50069,32.0135 C5.47699,32.2195 4.43772,32.3842 3.38201,32.4924 C2.27976,32.6057 1.16576,32.6686 0.0341123,32.6698 C-18.0721,32.6886 -32.7653,18.026 -32.7842,-0.080237 C-32.7853,-1.20866 -32.7238,-2.31987 -32.6138,-3.41913 C-32.6135,-3.42235 -32.6143,-3.42498 -32.6138,-3.4285 C-32.5077,-4.48415 -32.3455,-5.52404 -32.1413,-6.54817 C-32.0223,-7.14631 -31.8554,-7.72782 -31.7041,-8.314 C-31.5989,-8.72244 -31.5159,-9.13702 -31.3945,-9.53992 C-31.2312,-10.0842 -31.0286,-10.6096 -30.838,-11.1414 C-30.6704,-11.6099 -30.5155,-12.084 -30.3272,-12.5414 C-30.1319,-13.0184 -29.9055,-13.4765 -29.6885,-13.9418 C-29.4735,-14.4022 -29.2667,-14.8658 -29.0313,-15.3144 C-29.0295,-15.3183 -29.024,-15.32 -29.0222,-15.3235 C-29.019,-15.3297 -29.0143,-15.3341 -29.0129,-15.342 C-28.7853,-15.7746 -28.5378,-16.1931 -28.2918,-16.6143 C-28.0232,-17.0738 -27.7588,-17.534 -27.4698,-17.978 C-27.1869,-18.4121 -26.8864,-18.831 -26.5839,-19.2505 C-26.5775,-19.2593 -26.571,-19.269 -26.5658,-19.2778 C-26.4673,-19.414 -26.3638,-19.5458 -26.2641,-19.6808 C-26.0908,-19.9129 -25.9239,-20.1498 -25.7435,-20.3763 C-25.3851,-20.8313 -25.0103,-21.2692 -24.6288,-21.704 C-24.3212,-22.0547 -24.011,-22.4022 -23.6879,-22.7386 C-23.3569,-23.0849 -23.0191,-23.4234 -22.6735,-23.7551 C-22.6533,-23.7744 -22.6299,-23.7905 -22.6095,-23.8099 C-22.2334,-24.1691 -21.8509,-24.5211 -21.4581,-24.8631 C-21.0683,-25.2013 -20.6752,-25.5325 -20.2698,-25.8523 C-19.9002,-26.1442 -19.519,-26.42 -19.1365,-26.695 C-18.7006,-27.0095 -18.2628,-27.3179 -17.8111,-27.6111 C-17.3536,-27.9081 -16.8864,-28.1908 -16.4125,-28.4632 C-16.397,-28.4723 -16.3821,-28.482 -16.3666,-28.4908 C-16.3607,-28.4943 -16.3555,-28.4963 -16.3485,-28.4999 C-16.3426,-28.5034 -16.3353,-28.5066 -16.3303,-28.509 C-16.0024,-28.6981 -15.6777,-28.8902 -15.3427,-29.0682 C-15.3392,-29.07 -15.3374,-29.0755 -15.3336,-29.0773 C-15.3278,-29.0805 -15.3225,-29.0823 -15.3155,-29.0864 C-15.3093,-29.0896 -15.3032,-29.0925 -15.2971,-29.0955 C-14.8132,-29.3515 -14.3137,-29.5786 -13.8161,-29.8106 C-13.8099,-29.8136 -13.8023,-29.8171 -13.7976,-29.8197 C-13.7915,-29.8227 -13.7839,-29.8244 -13.7795,-29.8288 C-13.7707,-29.8329 -13.7608,-29.8341 -13.752,-29.8382 C-13.7333,-29.8467 -13.7151,-29.8564 -13.6973,-29.8658 C-13.6598,-29.8828 -13.6256,-29.9045 -13.5873,-29.9207 C-13.2134,-30.0914 -12.8444,-30.268 -12.4629,-30.425 C-12.4503,-30.4303 -12.4398,-30.4391 -12.4263,-30.4432 C-12.3631,-30.4693 -12.2973,-30.4942 -12.2344,-30.5166 C-12.2101,-30.5262 -12.1855,-30.5374 -12.1612,-30.5442 C-12.1495,-30.5488 -12.1375,-30.5509 -12.1244,-30.5533 C-12.1129,-30.558 -12.0995,-30.558 -12.0881,-30.5624 C-12.0547,-30.5756 -12.0205,-30.587 -11.9874,-30.5994 C-11.8484,-30.654 -11.7074,-30.7033 -11.5666,-30.7552 C-11.3358,-30.8424 -11.107,-30.9278 -10.8717,-31.0121 C-10.5065,-31.1407 -10.1537,-31.295 -9.78353,-31.4157 C-9.76538,-31.4213 -9.74695,-31.4283 -9.7288,-31.4339 C-9.71681,-31.4377 -9.70422,-31.4395 -9.69222,-31.443 C-9.68023,-31.4468 -9.66706,-31.4474 -9.65565,-31.4524 C-9.64365,-31.4562 -9.63048,-31.4577 -9.61907,-31.4615 C-9.60707,-31.4654 -9.59448,-31.4671 -9.58249,-31.4707 C-9.57049,-31.4745 -9.5579,-31.4748 -9.54591,-31.4801 C-9.54298,-31.4806 -9.53888,-31.4798 -9.53683,-31.4801 C-9.52747,-31.4827 -9.51781,-31.4848 -9.50933,-31.4892 C-9.49733,-31.4927 -9.48474,-31.4948 -9.47275,-31.4983 C-8.86146,-31.6827 -8.23402,-31.8277 -7.60718,-31.9759 C-7.58259,-31.9818 -7.55831,-31.9903 -7.53402,-31.9944 C-7.52173,-31.997 -7.51061,-31.9997 -7.49744,-32.0035 C-7.48807,-32.0056 -7.47929,-32.0111 -7.46993,-32.0126 C-7.44915,-32.0176 -7.42691,-32.0171 -7.40613,-32.0218 C-7.38418,-32.0268 -7.36429,-32.0344 -7.34204,-32.0403 C-7.06052,-32.1047 -6.78486,-32.1852 -6.50069,-32.2422 C-6.49806,-32.2428 -6.49397,-32.2408 -6.49133,-32.2422 C-6.48782,-32.2446 -6.48607,-32.2507 -6.48227,-32.2513 C-6.47934,-32.2522 -6.47523,-32.2499 -6.47319,-32.2513 C-5.51709,-32.4432 -4.54893,-32.585 -3.56464,-32.6934 C-3.50289,-32.7002 -3.44377,-32.7149 -3.38201,-32.7211 C-2.27976,-32.8344 -1.16575,-32.8973 -0.0341123,-32.8985 Z " fill="#bbbb44" fill-opacity="1.00" stroke-width="0.20" stroke="#ffffff" stroke-linecap="square" stroke-linejoin="miter" />		</g>	</svg>